<svg width="80" height="84" viewBox="0 0 80 84" fill="none" xmlns="http://www.w3.org/2000/svg">
<path d="M17.3047 26.8163C17.3047 23.8815 19.3418 21.4226 22.0794 20.7764C22.8112 20.6036 23.5106 21.1695 23.5106 21.9213V31.7113C23.5106 32.4631 22.8112 33.0289 22.0794 32.8561C19.3418 32.2101 17.3047 29.7512 17.3047 26.8163Z" fill="url(#paint0_linear_0_226)"/>
<path d="M62.1739 26.8161C62.1739 23.8813 60.1368 21.4224 57.3993 20.7761C56.6675 20.6034 55.968 21.1692 55.968 21.921V31.711C55.968 32.4628 56.6675 33.0287 57.3993 32.8559C60.1368 32.2098 62.1739 29.7509 62.1739 26.8161Z" fill="url(#paint1_linear_0_226)"/>
<path d="M73.0039 73.2704H6.47467V70.6313C6.47467 56.5507 17.8892 45.1362 31.9695 45.1362H47.5087C61.5892 45.1362 73.0035 56.5507 73.0035 70.6313V73.2704H73.0039Z" fill="url(#paint2_linear_0_226)"/>
<path d="M61.5864 49.374V73.2706H73.0039V70.6314C73.0039 61.7552 68.4669 53.9397 61.5864 49.374Z" fill="url(#paint3_linear_0_226)"/>
<path d="M27.0741 43.7397C27.0741 43.7397 23.3836 45.5849 24.5578 47.0947C25.4216 48.2052 29.8247 52.4919 32.0931 54.6818C32.8452 55.4078 34.0385 55.3954 34.7776 54.6563L39.7391 49.6948L27.0741 43.7397Z" fill="url(#paint4_linear_0_226)"/>
<path d="M52.4043 43.7397C52.4043 43.7397 56.0948 45.5849 54.9206 47.0947C54.0569 48.2052 49.6538 52.4919 47.3853 54.6818C46.6332 55.4078 45.44 55.3954 44.7008 54.6563L39.7392 49.695L52.4043 43.7397Z" fill="url(#paint5_linear_0_226)"/>
<path d="M39.7393 49.678C29.8252 49.678 21.7883 41.6411 21.7883 31.7272V22.5216C21.7883 12.6075 29.8252 4.5708 39.7391 4.5708C49.6532 4.5708 57.6899 12.6077 57.6899 22.5216V31.7272C57.6903 41.6411 49.6534 49.678 39.7393 49.678Z" fill="url(#paint6_linear_0_226)"/>
<path d="M40.731 36.2425H38.7475C37.0947 36.2425 35.8432 34.7489 36.1327 33.1216L37.2696 26.7302H42.2087L43.3456 33.1216C43.6353 34.7488 42.3838 36.2425 40.731 36.2425Z" fill="url(#paint7_linear_0_226)"/>
<path d="M74.1813 83.2735H5.65378C4.68551 83.2735 3.90051 82.4885 3.90051 81.5203V77.2708H75.9345V81.5203C75.9345 82.4885 75.1495 83.2735 74.1813 83.2735Z" fill="url(#paint8_linear_0_226)"/>
<path d="M78.2892 78.3516H1.18933C0.693684 78.3516 0.291931 77.9498 0.291931 77.4542V74.1674C0.291931 73.6718 0.693684 73.27 1.18933 73.27H78.2892C78.7848 73.27 79.1866 73.6718 79.1866 74.1674V77.4542C79.1866 77.9498 78.7848 78.3516 78.2892 78.3516Z" fill="url(#paint9_linear_0_226)"/>
<path d="M62.8416 40.344H16.6369C15.6247 40.344 14.8044 41.1645 14.8044 42.1765V70.7988C14.8044 72.1637 15.9107 73.27 17.2756 73.27H62.2029C63.5677 73.27 64.6741 72.1637 64.6741 70.7988V42.1766C64.6741 41.1645 63.8537 40.344 62.8416 40.344Z" fill="url(#paint10_linear_0_226)"/>
<path d="M39.7392 61.2155C42.1741 61.2155 44.148 59.2416 44.148 56.8067C44.148 54.3718 42.1741 52.3979 39.7392 52.3979C37.3043 52.3979 35.3304 54.3718 35.3304 56.8067C35.3304 59.2416 37.3043 61.2155 39.7392 61.2155Z" fill="url(#paint11_linear_0_226)"/>
<path d="M14.8044 62.9165V70.7988C14.8044 72.1637 15.9107 73.27 17.2756 73.27H62.2029C63.5677 73.27 64.6741 72.1637 64.6741 70.7988V62.9165H14.8044Z" fill="url(#paint12_linear_0_226)"/>
<path d="M31.7817 30.6807C30.341 30.6807 29.1729 29.5128 29.1729 28.0719V26.7341C29.1729 25.2933 30.3408 24.1252 31.7817 24.1252C33.2225 24.1252 34.3905 25.2931 34.3905 26.7341V28.0719C34.3905 29.5126 33.2225 30.6807 31.7817 30.6807Z" fill="url(#paint13_linear_0_226)"/>
<path d="M47.6968 30.6802C46.256 30.6802 45.088 29.5123 45.088 28.0714V26.7336C45.088 25.2928 46.2559 24.1248 47.6968 24.1248C49.1375 24.1248 50.3056 25.2927 50.3056 26.7336V28.0714C50.3054 29.5121 49.1375 30.6802 47.6968 30.6802Z" fill="url(#paint14_linear_0_226)"/>
<path d="M52.0756 2.07072C47.8067 2.07072 44.3462 5.77022 44.3462 10.3336C44.3462 12.4816 44.8669 14.4977 45.7809 16.2478C47.7246 19.9667 51.4425 22.4796 55.708 22.4796C58.4189 22.4796 60.6189 20.1356 60.6279 17.2376C60.6373 14.2486 60.6473 11.0926 60.6473 11.0926C60.6473 6.10993 56.8689 2.07056 52.208 2.07056H52.0756V2.07072Z" fill="url(#paint15_linear_0_226)"/>
<path d="M43.4938 2.00849H24.6684C22.8408 2.00849 21.0512 1.45131 19.5094 0.402478C18.3066 -0.415703 16.7328 0.507878 16.7328 2.032V11.4329C16.7328 17.5341 21.3594 22.4799 27.0665 22.4799H34.7013C39.1376 22.4799 43.0924 20.2686 45.6493 16.8198C47.5427 14.2715 48.6722 11.0475 48.6722 7.54431C48.6722 4.48688 46.3538 2.00849 43.4938 2.00849Z" fill="url(#paint16_linear_0_226)"/>
<defs>
<linearGradient id="paint0_linear_0_226" x1="19.1308" y1="24.1333" x2="24.1221" y2="29.1248" gradientUnits="userSpaceOnUse">
<stop stop-color="#FFDCBD"/>
<stop offset="1" stop-color="#FFA9B1"/>
</linearGradient>
<linearGradient id="paint1_linear_0_226" x1="54.0336" y1="23.185" x2="61.0184" y2="30.1695" gradientUnits="userSpaceOnUse">
<stop stop-color="#FFDCBD"/>
<stop offset="1" stop-color="#FFA9B1"/>
</linearGradient>
<linearGradient id="paint2_linear_0_226" x1="39.7393" y1="52.8628" x2="39.7393" y2="72.0038" gradientUnits="userSpaceOnUse">
<stop stop-color="#537983"/>
<stop offset="1" stop-color="#3E5959"/>
</linearGradient>
<linearGradient id="paint3_linear_0_226" x1="72.9268" y1="61.3224" x2="65.2553" y2="61.3224" gradientUnits="userSpaceOnUse">
<stop stop-color="#3E5959" stop-opacity="0"/>
<stop offset="1" stop-color="#384949"/>
</linearGradient>
<linearGradient id="paint4_linear_0_226" x1="33.9963" y1="44.7636" x2="29.3832" y2="52.1445" gradientUnits="userSpaceOnUse">
<stop stop-color="#FE99A0"/>
<stop offset="1" stop-color="#FD4755"/>
</linearGradient>
<linearGradient id="paint5_linear_0_226" x1="45.9664" y1="45.5442" x2="49.9086" y2="51.8348" gradientUnits="userSpaceOnUse">
<stop stop-color="#FE99A0"/>
<stop offset="1" stop-color="#FD4755"/>
</linearGradient>
<linearGradient id="paint6_linear_0_226" x1="21.7885" y1="27.1243" x2="57.6903" y2="27.1243" gradientUnits="userSpaceOnUse">
<stop stop-color="#FFDCBD"/>
<stop offset="1" stop-color="#FFA9B1"/>
</linearGradient>
<linearGradient id="paint7_linear_0_226" x1="39.7393" y1="29.763" x2="39.7393" y2="36.5587" gradientUnits="userSpaceOnUse">
<stop stop-color="#FFA9B1" stop-opacity="0"/>
<stop offset="0.9972" stop-color="#FFA78F"/>
</linearGradient>
<linearGradient id="paint8_linear_0_226" x1="39.9175" y1="87.4933" x2="39.9175" y2="77.2646" gradientUnits="userSpaceOnUse">
<stop stop-color="#883F2E"/>
<stop offset="1" stop-color="#6D3326"/>
</linearGradient>
<linearGradient id="paint9_linear_0_226" x1="39.7393" y1="74.2586" x2="39.7393" y2="78.4208" gradientUnits="userSpaceOnUse">
<stop stop-color="#CA6E59"/>
<stop offset="1" stop-color="#883F2E"/>
</linearGradient>
<linearGradient id="paint10_linear_0_226" x1="34.31" y1="44.4801" x2="46.963" y2="72.6243" gradientUnits="userSpaceOnUse">
<stop stop-color="#EEF5F6"/>
<stop offset="1" stop-color="#CBE5E8"/>
</linearGradient>
<linearGradient id="paint11_linear_0_226" x1="44.8024" y1="61.8699" x2="37.4541" y2="54.5216" gradientUnits="userSpaceOnUse">
<stop stop-color="#EEF5F6" stop-opacity="0"/>
<stop offset="1" stop-color="white"/>
</linearGradient>
<linearGradient id="paint12_linear_0_226" x1="39.7392" y1="67.3825" x2="39.7392" y2="73.4518" gradientUnits="userSpaceOnUse">
<stop stop-color="#CBE5E8" stop-opacity="0"/>
<stop offset="1" stop-color="#7CA1B1"/>
</linearGradient>
<linearGradient id="paint13_linear_0_226" x1="29.1731" y1="27.403" x2="34.3905" y2="27.403" gradientUnits="userSpaceOnUse">
<stop stop-color="#537983"/>
<stop offset="1" stop-color="#3E5959"/>
</linearGradient>
<linearGradient id="paint14_linear_0_226" x1="45.088" y1="27.4025" x2="50.3054" y2="27.4025" gradientUnits="userSpaceOnUse">
<stop stop-color="#537983"/>
<stop offset="1" stop-color="#3E5959"/>
</linearGradient>
<linearGradient id="paint15_linear_0_226" x1="45.1876" y1="4.08216" x2="55.5144" y2="14.4088" gradientUnits="userSpaceOnUse">
<stop stop-color="#D78878"/>
<stop offset="1" stop-color="#CA6E59"/>
</linearGradient>
<linearGradient id="paint16_linear_0_226" x1="16.7328" y1="11.2885" x2="48.6722" y2="11.2885" gradientUnits="userSpaceOnUse">
<stop stop-color="#D78878"/>
<stop offset="1" stop-color="#CA6E59"/>
</linearGradient>
</defs>
</svg>
