<svg width="86" height="79" viewBox="0 0 86 79" fill="none" xmlns="http://www.w3.org/2000/svg">
<path d="M59.543 78.751H4.3863C1.97419 78.751 0.0187988 76.7956 0.0187988 74.3835V3.46456C0.0187988 1.89312 1.29278 0.619141 2.86422 0.619141H68.4764C70.0479 0.619141 71.3219 1.89312 71.3219 3.46456V66.9722C71.3219 73.4774 66.0483 78.751 59.543 78.751Z" fill="url(#paint0_linear_0_183)"/>
<path d="M71.3219 21.5017L39.5013 53.3223L64.0399 77.8608C68.3139 76.0936 71.3219 71.8852 71.3219 66.9728V21.5017Z" fill="url(#paint1_linear_0_183)"/>
<path d="M0.0187988 9.65698H71.3219V29.9001H0.0187988V9.65698Z" fill="url(#paint2_linear_0_183)"/>
<path d="M58.5283 31.5603H9.82947C9.24041 31.5603 8.76294 31.0828 8.76294 30.4938V29.0394C8.76294 28.4504 9.24041 27.9729 9.82947 27.9729H58.5285C59.1175 27.9729 59.595 28.4504 59.595 29.0394V30.4938C59.595 31.0828 59.1174 31.5603 58.5283 31.5603Z" fill="url(#paint3_linear_0_183)"/>
<path d="M58.5283 39.2456H9.82947C9.24041 39.2456 8.76294 38.7681 8.76294 38.1791V36.7247C8.76294 36.1357 9.24041 35.6582 9.82947 35.6582H58.5285C59.1175 35.6582 59.595 36.1357 59.595 36.7247V38.1791C59.595 38.7681 59.1174 39.2456 58.5283 39.2456Z" fill="url(#paint4_linear_0_183)"/>
<path d="M35.4862 46.9297H9.82947C9.24041 46.9297 8.76294 46.4522 8.76294 45.8631V44.4088C8.76294 43.8198 9.24041 43.3423 9.82947 43.3423H35.4862C36.0753 43.3423 36.5528 43.8198 36.5528 44.4088V45.8631C36.5528 46.452 36.0753 46.9297 35.4862 46.9297Z" fill="url(#paint5_linear_0_183)"/>
<path d="M0.0187988 58.458V74.3837C0.0187988 76.7958 1.97419 78.7512 4.3863 78.7512H59.543C66.0483 78.7512 71.3219 73.4776 71.3219 66.9723V58.458H0.0187988Z" fill="url(#paint6_linear_0_183)"/>
<path d="M8.75373 64.8781V74.3837C8.75373 76.7958 6.79834 78.7512 4.38623 78.7512H68.2779C74.7832 78.7512 80.0568 73.4776 80.0568 66.9724V64.8781C80.0568 63.3067 78.7828 62.0327 77.2114 62.0327H11.5993C10.0277 62.0327 8.75373 63.3067 8.75373 64.8781Z" fill="url(#paint7_linear_0_183)"/>
<path d="M8.75373 64.8781V74.3837C8.75373 76.7958 6.79834 78.7512 4.38623 78.7512H68.2779C74.7832 78.7512 80.0568 73.4776 80.0568 66.9724V64.8781C80.0568 63.3067 78.7828 62.0327 77.2114 62.0327H11.5993C10.0277 62.0327 8.75373 63.3067 8.75373 64.8781Z" fill="url(#paint8_linear_0_183)"/>
<path d="M68.4764 0.619141H2.86422C1.29278 0.619141 0.0187988 1.89312 0.0187988 3.46456V18.3562H71.3219V3.46456C71.3219 1.89312 70.0479 0.619141 68.4764 0.619141Z" fill="url(#paint9_linear_0_183)"/>
<path d="M84.4832 8.92718L83.8918 8.33577C82.7478 7.19179 80.893 7.19179 79.7488 8.33577L70.9369 17.1477L75.6711 21.882L84.4831 13.07C85.6274 11.926 85.6274 10.0712 84.4832 8.92718Z" fill="url(#paint10_linear_0_183)"/>
<path d="M73.3042 19.5142L75.6713 21.8813L82.7731 14.7795L80.406 12.4124L73.3042 19.5142Z" fill="url(#paint11_linear_0_183)"/>
<path d="M43.3437 53.1101L41.2859 53.6833C39.7712 54.1051 38.7135 53.0474 39.1354 51.5329L39.7086 49.4751C40.6676 46.0319 42.7061 42.6438 45.4997 39.8502L46.5496 38.8003L73.0265 13.6616C73.9098 12.7783 75.1431 12.5792 75.7809 13.2169L79.4344 17.0377C80.0721 17.6754 79.873 18.9088 78.9897 19.7921L54.0178 46.2696L52.9684 47.3191C50.1748 50.1127 46.7868 52.1512 43.3437 53.1101Z" fill="url(#paint12_linear_0_183)"/>
<path d="M43.3437 53.1105L41.2859 53.6837C39.7712 54.1054 38.7135 53.0478 39.1354 51.5332L39.7086 49.4754C40.6676 46.0322 42.7061 42.6441 45.4997 39.8506L46.5458 38.8044L50.7692 41.3549L54.0147 46.2733L52.9685 47.3194C50.1748 50.113 46.7868 52.1515 43.3437 53.1105Z" fill="url(#paint13_linear_0_183)"/>
<path d="M80.7358 16.8334L75.9852 12.0828C75.2345 11.3321 74.0176 11.3321 73.2669 12.0828L46.5458 38.8039L54.0147 46.2728L80.7358 19.5517C81.4865 18.8012 81.4865 17.5841 80.7358 16.8334Z" fill="url(#paint14_linear_0_183)"/>
<path d="M80.9401 17.0371L78.3605 14.4575L61.301 31.517L65.0355 35.2514L80.4954 19.7915C81.3787 18.9082 81.5778 17.675 80.9401 17.0371Z" fill="url(#paint15_linear_0_183)"/>
<path d="M77.4474 12.4131L61.301 28.5594C60.484 29.3765 60.484 30.7012 61.301 31.5181C62.1181 32.3352 63.4428 32.3352 64.2597 31.5181L80.4061 15.3718C81.2231 14.5547 81.2231 13.23 80.4061 12.4131C79.5891 11.596 78.2643 11.596 77.4474 12.4131Z" fill="url(#paint16_linear_0_183)"/>
<defs>
<linearGradient id="paint0_linear_0_183" x1="-3.40832" y1="0.160742" x2="77.4329" y2="81.0018" gradientUnits="userSpaceOnUse">
<stop stop-color="#EEF4FF"/>
<stop offset="1" stop-color="#CFE7FD"/>
</linearGradient>
<linearGradient id="paint1_linear_0_183" x1="71.2214" y1="53.2217" x2="57.9629" y2="39.9633" gradientUnits="userSpaceOnUse">
<stop stop-color="#8AAADC" stop-opacity="0"/>
<stop offset="1" stop-color="#8AAADC"/>
</linearGradient>
<linearGradient id="paint2_linear_0_183" x1="35.6703" y1="28.3944" x2="35.6703" y2="17.8427" gradientUnits="userSpaceOnUse">
<stop stop-color="#8AAADC" stop-opacity="0"/>
<stop offset="1" stop-color="#8AAADC"/>
</linearGradient>
<linearGradient id="paint3_linear_0_183" x1="8.76294" y1="29.7667" x2="59.595" y2="29.7667" gradientUnits="userSpaceOnUse">
<stop stop-color="#5A5A5A"/>
<stop offset="1" stop-color="#464646"/>
</linearGradient>
<linearGradient id="paint4_linear_0_183" x1="8.76294" y1="37.4518" x2="59.595" y2="37.4518" gradientUnits="userSpaceOnUse">
<stop stop-color="#5A5A5A"/>
<stop offset="1" stop-color="#464646"/>
</linearGradient>
<linearGradient id="paint5_linear_0_183" x1="8.76294" y1="45.1359" x2="36.5528" y2="45.1359" gradientUnits="userSpaceOnUse">
<stop stop-color="#5A5A5A"/>
<stop offset="1" stop-color="#464646"/>
</linearGradient>
<linearGradient id="paint6_linear_0_183" x1="35.6703" y1="59.3092" x2="35.6703" y2="80.3939" gradientUnits="userSpaceOnUse">
<stop stop-color="#8AAADC" stop-opacity="0"/>
<stop offset="1" stop-color="#8AAADC"/>
</linearGradient>
<linearGradient id="paint7_linear_0_183" x1="42.2217" y1="62.0327" x2="42.2217" y2="78.3029" gradientUnits="userSpaceOnUse">
<stop stop-color="#EEF4FF"/>
<stop offset="1" stop-color="#CFE7FD"/>
</linearGradient>
<linearGradient id="paint8_linear_0_183" x1="42.2217" y1="69.7171" x2="42.2217" y2="81.2801" gradientUnits="userSpaceOnUse">
<stop stop-color="#8AAADC" stop-opacity="0"/>
<stop offset="1" stop-color="#8AAADC"/>
</linearGradient>
<linearGradient id="paint9_linear_0_183" x1="35.6703" y1="2.46277" x2="35.6703" y2="19.5272" gradientUnits="userSpaceOnUse">
<stop stop-color="#F7E07D"/>
<stop offset="1" stop-color="#E69642"/>
</linearGradient>
<linearGradient id="paint10_linear_0_183" x1="78.2236" y1="13.6248" x2="80.6923" y2="16.0935" gradientUnits="userSpaceOnUse">
<stop stop-color="#F7E07D"/>
<stop offset="1" stop-color="#E69642"/>
</linearGradient>
<linearGradient id="paint11_linear_0_183" x1="80.7267" y1="19.8347" x2="76.4605" y2="15.5686" gradientUnits="userSpaceOnUse">
<stop stop-color="#D52C1C" stop-opacity="0"/>
<stop offset="0.28" stop-color="#D12C1E" stop-opacity="0.28"/>
<stop offset="0.5735" stop-color="#C42C23" stop-opacity="0.574"/>
<stop offset="0.8721" stop-color="#AF2B2C" stop-opacity="0.872"/>
<stop offset="1" stop-color="#A42B31"/>
</linearGradient>
<linearGradient id="paint12_linear_0_183" x1="54.7258" y1="30.4364" x2="62.1936" y2="37.9042" gradientUnits="userSpaceOnUse">
<stop stop-color="#EEF4FF"/>
<stop offset="1" stop-color="#CFE7FD"/>
</linearGradient>
<linearGradient id="paint13_linear_0_183" x1="41.4405" y1="43.7221" x2="48.9082" y2="51.1899" gradientUnits="userSpaceOnUse">
<stop stop-color="#8AAADC" stop-opacity="0"/>
<stop offset="1" stop-color="#8AAADC"/>
</linearGradient>
<linearGradient id="paint14_linear_0_183" x1="60.6051" y1="24.5572" x2="68.0728" y2="32.0249" gradientUnits="userSpaceOnUse">
<stop stop-color="#DC4955"/>
<stop offset="1" stop-color="#C4237C"/>
</linearGradient>
<linearGradient id="paint15_linear_0_183" x1="75.3169" y1="28.4697" x2="71.5945" y2="24.7473" gradientUnits="userSpaceOnUse">
<stop stop-color="#8A1958" stop-opacity="0"/>
<stop offset="1" stop-color="#8A1958"/>
</linearGradient>
<linearGradient id="paint16_linear_0_183" x1="69.4047" y1="20.5167" x2="71.5861" y2="22.6981" gradientUnits="userSpaceOnUse">
<stop stop-color="#EEF4FF"/>
<stop offset="1" stop-color="#CFE7FD"/>
</linearGradient>
</defs>
</svg>

