<svg width="63" height="90" viewBox="0 0 63 90" fill="none" xmlns="http://www.w3.org/2000/svg">
<path d="M57.4103 89.2404H5.54653C2.51513 89.2404 0.0576439 86.7829 0.0576439 83.7515V5.62073C0.0576439 2.58932 2.51513 0.131836 5.54653 0.131836H57.4103C60.4417 0.131836 62.8992 2.58932 62.8992 5.62073V83.7517C62.8992 86.7829 60.4417 89.2404 57.4103 89.2404Z" fill="url(#paint0_linear_0_211)"/>
<path d="M55.4007 86.5823H7.55608C4.73007 86.5823 2.43916 84.2914 2.43916 81.4654V7.90647C2.43916 5.08046 4.73007 2.78955 7.55608 2.78955H55.4009C58.2269 2.78955 60.5178 5.08046 60.5178 7.90647V81.4655C60.5176 84.2914 58.2267 86.5823 55.4007 86.5823Z" fill="url(#paint1_linear_0_211)"/>
<path d="M53.2727 5.44922H40.4563C40.0687 5.44922 39.7543 5.76343 39.7543 6.15128C39.7543 7.23276 38.8776 8.10942 37.7961 8.10942H25.1607C24.0792 8.10942 23.2025 7.23276 23.2025 6.15128C23.2025 5.76362 22.8883 5.44922 22.5005 5.44922H9.68406C7.07014 5.44922 4.95135 7.5682 4.95135 10.1819V79.189C4.95135 81.8029 7.07033 83.9217 9.68406 83.9217H53.2725C55.8865 83.9217 58.0053 81.8027 58.0053 79.189V10.1819C58.0054 7.5682 55.8865 5.44922 53.2727 5.44922Z" fill="url(#paint2_linear_0_211)"/>
<path d="M43.9093 74.9706H19.0476C17.8506 74.9706 16.8802 74.0003 16.8802 72.8033V68.9784C16.8802 67.7814 17.8506 66.811 19.0476 66.811H43.9093C45.1063 66.811 46.0766 67.7814 46.0766 68.9784V72.8033C46.0766 74.0003 45.1063 74.9706 43.9093 74.9706Z" fill="url(#paint3_linear_0_211)"/>
<path d="M29.2082 1.35252L18.5932 17.4359C17.3997 19.2445 18.6967 21.6546 20.8635 21.6546H25.8266V34.6532C25.8266 36.0996 26.9991 37.2719 28.4453 37.2719H34.5118C35.9582 37.2719 37.1305 36.0994 37.1305 34.6532V21.6546H42.0936C44.2606 21.6546 45.5576 19.2445 44.3639 17.4359L33.7487 1.35252C32.6735 -0.276686 30.2834 -0.276686 29.2082 1.35252Z" fill="url(#paint4_linear_0_211)"/>
<path d="M31.4784 62.7406C41.9349 62.7406 50.4116 54.2639 50.4116 43.8074C50.4116 33.3509 41.9349 24.8743 31.4784 24.8743C21.022 24.8743 12.5453 33.3509 12.5453 43.8074C12.5453 54.2639 21.022 62.7406 31.4784 62.7406Z" fill="url(#paint5_linear_0_211)"/>
<path d="M31.4785 58.5341C39.6113 58.5341 46.2042 51.9411 46.2042 43.8083C46.2042 35.6755 39.6113 29.0825 31.4785 29.0825C23.3456 29.0825 16.7527 35.6755 16.7527 43.8083C16.7527 51.9411 23.3456 58.5341 31.4785 58.5341Z" fill="url(#paint6_linear_0_211)"/>
<path d="M49.9551 47.9534L37.5771 35.5753C36.941 34.6197 35.2374 34.2284 33.8539 34.0871C33.7543 33.9578 32.8183 33.061 32.7625 32.9922C32.5735 32.7596 32.2129 32.5889 31.8516 32.5889C31.2452 32.5889 30.804 32.9473 30.804 33.3332V34.1051C27.8818 34.5185 25.2904 36.2001 25.2904 39.7012C25.2904 41.3735 25.9596 42.5188 26.933 43.3645C26.933 43.3645 30.7711 47.2114 30.804 47.2473V49.8461C28.764 49.4877 27.8267 47.8612 26.6687 47.8612C25.6211 47.8612 24.7941 49.2395 24.7941 50.1768C24.7941 50.8624 25.2034 51.5392 25.8963 52.1175L35.9798 62.2011C42.9384 60.5042 48.3894 54.9625 49.9551 47.9534Z" fill="url(#paint7_linear_0_211)"/>
<path d="M32.8154 41.6022V37.5772C34.6074 37.7151 35.1312 38.5973 36.0408 38.5973C37.2538 38.5973 37.7499 37.0812 37.7499 36.3368C37.7499 34.4347 34.5244 33.9935 32.8153 33.9384V33.2492C32.8153 32.8633 32.2914 32.5049 31.7676 32.5049C31.1612 32.5049 30.72 32.8633 30.72 33.2492V34.0211C27.7978 34.4345 25.2064 36.1161 25.2064 39.6172C25.2064 43.1459 28.1837 44.3312 30.72 45.2962V49.7622C28.68 49.4038 27.7427 47.7772 26.5847 47.7772C25.5371 47.7772 24.7102 49.1555 24.7102 50.0928C24.7102 51.8572 27.4119 53.5664 30.72 53.6765V54.3658C30.72 54.7517 31.161 55.1101 31.7676 55.1101C32.2914 55.1101 32.8153 54.7517 32.8153 54.3658V53.5664C36.0406 53.0426 38.2462 50.975 38.2462 47.5567C38.2464 43.8349 35.324 42.5393 32.8154 41.6022ZM30.996 40.9405C29.9483 40.4994 29.2315 40.0032 29.2315 39.2038C29.2315 38.5421 29.7554 37.9081 30.996 37.6601V40.9405ZM32.5399 49.7344V46.0404C33.5322 46.5089 34.2213 47.088 34.2213 47.9977C34.2215 48.9901 33.477 49.5139 32.5399 49.7344Z" fill="url(#paint8_linear_0_211)"/>
<path d="M0.0576172 74.833V83.7507C0.0576172 86.7821 2.5151 89.2396 5.54651 89.2396H57.4103C60.4417 89.2396 62.8992 86.7821 62.8992 83.7507V74.833H0.0576172Z" fill="url(#paint9_linear_0_211)"/>
<defs>
<linearGradient id="paint0_linear_0_211" x1="6.95963" y1="20.1673" x2="63.8547" y2="77.0622" gradientUnits="userSpaceOnUse">
<stop stop-color="#537983"/>
<stop offset="1" stop-color="#3E5959"/>
</linearGradient>
<linearGradient id="paint1_linear_0_211" x1="60.8871" y1="74.0946" x2="-20.3858" y2="-7.17846" gradientUnits="userSpaceOnUse">
<stop stop-color="#537983"/>
<stop offset="1" stop-color="#3E5959"/>
</linearGradient>
<linearGradient id="paint2_linear_0_211" x1="16.5524" y1="29.7596" x2="62.2193" y2="75.4265" gradientUnits="userSpaceOnUse">
<stop stop-color="#EEF5F6"/>
<stop offset="1" stop-color="#CBE5E8"/>
</linearGradient>
<linearGradient id="paint3_linear_0_211" x1="31.4784" y1="64.6435" x2="31.4784" y2="77.5207" gradientUnits="userSpaceOnUse">
<stop stop-color="#C1E9AF"/>
<stop offset="1" stop-color="#4FC123"/>
</linearGradient>
<linearGradient id="paint4_linear_0_211" x1="22.3378" y1="11.0551" x2="37.1448" y2="25.8619" gradientUnits="userSpaceOnUse">
<stop stop-color="#FE99A0"/>
<stop offset="1" stop-color="#FD4755"/>
</linearGradient>
<linearGradient id="paint5_linear_0_211" x1="21.9162" y1="34.2454" x2="43.3493" y2="55.6783" gradientUnits="userSpaceOnUse">
<stop stop-color="#FFE177"/>
<stop offset="1" stop-color="#FE9738"/>
</linearGradient>
<linearGradient id="paint6_linear_0_211" x1="38.9157" y1="51.2456" x2="22.2456" y2="34.5756" gradientUnits="userSpaceOnUse">
<stop stop-color="#FFE177"/>
<stop offset="1" stop-color="#FE9738"/>
</linearGradient>
<linearGradient id="paint7_linear_0_211" x1="43.5638" y1="51.9127" x2="26.2562" y2="43.6892" gradientUnits="userSpaceOnUse">
<stop stop-color="#FE9738" stop-opacity="0"/>
<stop offset="1" stop-color="#F46700"/>
</linearGradient>
<linearGradient id="paint8_linear_0_211" x1="27.728" y1="39.8253" x2="36.4864" y2="48.5837" gradientUnits="userSpaceOnUse">
<stop stop-color="#FE9738"/>
<stop offset="1" stop-color="#F46700"/>
</linearGradient>
<linearGradient id="paint9_linear_0_211" x1="31.4784" y1="80.1532" x2="31.4784" y2="89.6852" gradientUnits="userSpaceOnUse">
<stop stop-color="#3E5959" stop-opacity="0"/>
<stop offset="1" stop-color="#384949"/>
</linearGradient>
</defs>
</svg>
