<svg width="86" height="86" viewBox="0 0 86 86" fill="none" xmlns="http://www.w3.org/2000/svg">
<g clip-path="url(#clip0_0_101)">
<path d="M46.0826 42.6488L42.9442 40.5499C42.2561 40.0897 42.0707 39.1556 42.5309 38.4676C42.9911 37.7795 43.9251 37.5942 44.6132 38.0544L49.912 41.5981L51.9139 38.6047L49.2965 36.8543L50.5944 34.9136L47.601 32.9117L46.2947 34.8651C43.9941 33.5586 41.0313 34.2322 39.5376 36.4657C37.9736 38.8043 38.6037 41.9792 40.9423 43.5432L44.0808 45.6421C44.8301 46.1433 45.032 47.1605 44.5309 47.9098C44.0297 48.6591 43.0125 48.861 42.2632 48.3599L35.5002 43.837L33.4984 46.8303L36.811 49.0457L35.5131 50.9864L38.5065 52.9883L39.8043 51.0476L40.2613 51.3532C42.6612 52.9582 45.9192 52.3115 47.5242 49.9117C49.1292 47.5118 48.4825 44.2538 46.0826 42.6488Z" fill="#FFDE55"/>
<path d="M39.8045 51.0475L40.2614 51.3532C42.6613 52.9581 45.9193 52.3115 47.5243 49.9116C49.1293 47.5117 48.4826 44.2537 46.0827 42.6487L44.1324 41.3444L42.1305 44.3377L44.0809 45.6421C44.8302 46.1432 45.0321 47.1604 44.531 47.9097C44.0298 48.659 43.0126 48.8609 42.2633 48.3598L40.3129 47.0555L37.0132 51.9895L38.5066 52.9882L39.8045 51.0475Z" fill="#FFB655"/>
<path d="M49.9121 41.5982L51.9139 38.6048L49.2964 36.8543L50.5943 34.9137L49.101 33.9149L45.8012 38.8489L49.9121 41.5982Z" fill="#FFB655"/>
<path d="M51.1262 30.8866C54.4316 33.0971 56.5243 36.4508 57.2322 40.0758L73.2678 36.893C73.265 36.8784 73.2626 36.8639 73.2598 36.8494C71.663 28.8041 67.0287 21.8624 60.2108 17.3027C53.3929 12.743 45.2074 11.1113 37.1623 12.7083C31.9185 13.7489 27.144 16.0811 23.1918 19.4664L33.8111 31.9024C38.5807 27.8325 45.6638 27.2335 51.1262 30.8866Z" fill="#A5E887"/>
<path d="M73.2597 36.8494C71.6629 28.8041 67.0287 21.8624 60.2108 17.3027L51.1262 30.8866C54.4315 33.0972 56.5243 36.4508 57.2321 40.0758L73.2678 36.893C73.265 36.8784 73.2627 36.8639 73.2597 36.8494Z" fill="#00CC76"/>
<path d="M35.1547 54.7683C28.5704 50.365 26.7961 41.4258 31.1995 34.8417C32.2394 33.2866 33.5326 32.0003 34.9879 30.9998L24.3399 18.5304C21.7568 20.533 19.4856 22.9611 17.6157 25.7572C13.0561 32.575 11.4243 40.7605 13.0212 48.8058C14.6179 56.8508 19.2522 63.7927 26.0701 68.3524C30.9667 71.6271 36.5689 73.3915 42.3178 73.5342L43.6064 57.1793C40.7044 57.2776 37.7471 56.5021 35.1547 54.7683Z" fill="#FF8859"/>
<path d="M43.6066 57.1792C40.7047 57.2774 37.7472 56.502 35.1549 54.7683L26.0703 68.3523C30.9669 71.627 36.5691 73.3914 42.318 73.5341L43.6066 57.1792Z" fill="#FF5B5B"/>
<path d="M68.6653 59.8979C73.2249 53.08 74.8567 44.8945 73.2598 36.8494C73.152 36.3064 73.0292 35.769 72.8941 35.2364L56.8088 38.4291C58.1021 42.4624 57.6134 47.027 55.0813 50.8133C52.0864 55.2914 46.9934 57.5435 41.9702 57.1413L40.6854 73.4485C43.4706 73.6675 46.3031 73.5055 49.1186 72.9467C57.1637 71.3501 64.1056 66.7159 68.6653 59.8979Z" fill="#4895FF"/>
<path d="M68.6653 59.8979C73.2249 53.08 74.8567 44.8945 73.2598 36.8494C73.152 36.3064 73.0292 35.769 72.8941 35.2364L56.8088 38.4291C58.1021 42.4624 57.6134 47.027 55.0813 50.8133C52.0864 55.2914 46.9934 57.5435 41.9702 57.1413L40.6854 73.4485C43.4706 73.6675 46.3031 73.5055 49.1186 72.9467C57.1637 71.3501 64.1056 66.7159 68.6653 59.8979Z" fill="#515BE0"/>
</g>
<defs>
<clipPath id="clip0_0_101">
<rect width="61.4137" height="61.4137" fill="white" transform="translate(34.686 0.232422) rotate(33.7736)"/>
</clipPath>
</defs>
</svg>
