<svg width="41" height="41" viewBox="0 0 41 41" fill="none" xmlns="http://www.w3.org/2000/svg">
<path d="M20.1691 0.0605469C31.1922 0.0605469 40.1691 9.03305 40.1691 20.0721C40.1691 31.088 31.1922 40.0605 20.1691 40.0605C9.1459 40.0605 0.169067 31.088 0.169067 20.0721C0.169067 9.03305 9.1459 0.0605469 20.1691 0.0605469ZM17.8911 12.1204C17.4664 12.1204 17.061 12.2168 16.6749 12.4098C16.1922 12.6799 15.8061 13.1044 15.5938 13.6061C15.4586 13.9535 15.2463 14.9954 15.2463 15.0147C15.0339 16.1532 14.9181 18.0056 14.9181 20.0509C14.9181 22.0017 15.0339 23.775 15.2077 24.9327C15.227 24.952 15.4393 26.2448 15.671 26.6886C16.0957 27.499 16.9258 28.0007 17.8139 28.0007H17.8911C18.4702 27.9814 19.6864 27.4797 19.6864 27.4605C21.7328 26.6114 25.7675 23.9679 27.3891 22.212L27.505 22.0962C27.7173 21.884 27.9876 21.556 28.0455 21.4788C28.3544 21.0736 28.5088 20.5719 28.5088 20.0721C28.5088 19.5106 28.3351 18.9896 28.0069 18.5651C27.9297 18.4879 27.6401 18.1599 27.3698 17.8898C25.7868 16.1918 21.6556 13.4132 19.4934 12.5642C19.1652 12.431 18.3351 12.1397 17.8911 12.1204Z" fill="white"/>
</svg>
