<svg width="215" height="203" viewBox="0 0 215 203" fill="none" xmlns="http://www.w3.org/2000/svg">
<path d="M106.918 196.743C158.146 193.435 197.22 149.973 195.444 99.013C195.389 97.4458 194.039 96.2367 192.474 96.3378L100.816 102.257L6.32996 108.36C9.70011 160.543 54.7351 200.114 106.918 196.743Z" fill="#FECA57"/>
<path d="M106.139 184.68C58.0428 187.786 16.0195 154.414 7.0933 108.31L6.32996 108.36C9.70011 160.543 54.7351 200.114 106.918 196.743C158.146 193.435 197.22 149.973 195.444 99.013C195.416 98.2082 195.045 97.4994 194.48 97.0125C191.181 143.515 153.958 181.592 106.139 184.68Z" fill="#F4B537"/>
<path d="M6.32889 108.359L100.815 102.257L148.984 24.0415C149.805 22.7072 149.372 20.9491 148.015 20.167C132.399 11.1691 114.046 6.52247 94.7128 7.7711C42.5296 11.1412 2.95874 56.1762 6.32889 108.359Z" fill="#6C60FE"/>
<path d="M96.9887 86.6795C95.5997 88.9349 93.2034 90.3764 90.5602 90.5472L6.33249 95.9868C6.06772 100.054 6.05918 104.183 6.32889 108.359L100.815 102.257L148.984 24.0415C149.805 22.7072 149.372 20.9492 148.015 20.1671C145.537 18.7392 142.99 17.4223 140.381 16.2198L96.9887 86.6795Z" fill="#6256F2"/>
<path d="M168.025 19.7954L129.751 81.9448C128.563 83.8727 130.046 86.3374 132.306 86.1915L205.142 81.4875C206.709 81.3863 207.897 80.0117 207.741 78.4497C205.251 53.4136 191.543 32.0131 171.964 18.9457C170.644 18.065 168.858 18.4437 168.025 19.7954Z" fill="#FF6B6B"/>
<path d="M204.353 69.2641L134.794 73.7564L129.751 81.9455C128.563 83.8733 130.046 86.338 132.306 86.1921L205.142 81.4881C206.709 81.3869 207.897 80.0123 207.741 78.4504C207.404 75.0566 206.853 71.7326 206.117 68.4841C205.657 68.9289 205.041 69.2196 204.353 69.2641Z" fill="#EE5253"/>
</svg>
