<svg width="74" height="73" viewBox="0 0 74 73" fill="none" xmlns="http://www.w3.org/2000/svg">
<g clip-path="url(#clip0_0_89)">
<path d="M17.7472 47.0167L17.0975 49.2121L28.3549 69.9333L30.5502 70.583L32.684 69.4238C33.0768 69.2104 33.2222 68.7189 33.0088 68.3261L20.9786 46.1823C20.7652 45.7895 20.2738 45.6441 19.881 45.8575L17.7472 47.0167Z" fill="#FF8730"/>
<path d="M13.8281 50.067L25.8583 72.2108C26.0717 72.6036 26.5632 72.7491 26.956 72.5357L30.5502 70.583L17.7472 47.0167L14.153 48.9694C13.7602 49.1828 13.6147 49.6742 13.8281 50.067Z" fill="#FFA436"/>
<path d="M21.5086 30.1115L20.8589 32.3068L32.1163 53.0281L34.3117 53.6777L36.4454 52.5185C36.8382 52.3051 36.9837 51.8137 36.7703 51.4209L24.7401 29.2771C24.5267 28.8843 24.0352 28.7388 23.6424 28.9522L21.5086 30.1115Z" fill="#FFBC2B"/>
<path d="M17.5896 33.1618L29.6198 55.3055C29.8332 55.6983 30.3247 55.8438 30.7175 55.6304L34.3117 53.6777L21.5086 30.1114L17.9144 32.0641C17.5216 32.2775 17.3762 32.769 17.5896 33.1618Z" fill="#FFCF66"/>
<path d="M34.5375 30.2645L33.8878 32.4599L45.1452 53.1811L47.3405 53.8308L49.4743 52.6716C49.8671 52.4582 50.0125 51.9667 49.7991 51.5739L37.7689 29.4301C37.5555 29.0373 37.064 28.8919 36.6712 29.1053L34.5375 30.2645Z" fill="#61CE5A"/>
<path d="M30.6184 33.3148L42.6486 55.4585C42.862 55.8513 43.3535 55.9968 43.7463 55.7834L47.3405 53.8307L34.5375 30.2644L30.9433 32.2171C30.5504 32.4305 30.405 32.922 30.6184 33.3148Z" fill="#94E368"/>
<path d="M38.1315 13.051L37.4818 15.2464L48.7392 35.9676L50.9345 36.6173L53.0683 35.4581C53.4611 35.2447 53.6065 34.7532 53.3931 34.3604L41.3629 12.2166C41.1495 11.8238 40.658 11.6784 40.2652 11.8918L38.1315 13.051Z" fill="#24C0FF"/>
<path d="M34.2124 16.1013L46.2426 38.2451C46.456 38.6379 46.9475 38.7834 47.3403 38.5699L50.9345 36.6173L38.1315 13.051L34.5373 15.0037C34.1445 15.2171 33.999 15.7085 34.2124 16.1013Z" fill="#47D4FF"/>
<path d="M44.9262 1.72907L44.2765 3.9244L55.5339 24.6457L57.7293 25.2954L59.863 24.1361C60.2558 23.9227 60.4013 23.4313 60.1879 23.0385L48.1577 0.894693C47.9443 0.50189 47.4528 0.356445 47.06 0.569846L44.9262 1.72907Z" fill="#3A6FD8"/>
<path d="M41.0072 4.77937L53.0374 26.9231C53.2508 27.316 53.7423 27.4614 54.1351 27.248L57.7293 25.2953L44.9262 1.72904L41.332 3.6817C40.9392 3.89511 40.7938 4.38657 41.0072 4.77937Z" fill="#3B88F5"/>
</g>
<defs>
<clipPath id="clip0_0_89">
<rect width="53.6391" height="53.6391" fill="white" transform="translate(0.638672 25.7896) rotate(-28.5143)"/>
</clipPath>
</defs>
</svg>
